<?xml version="1.0" encoding="utf-8"?>
<!-- Generator: Adobe Illustrator 24.3.0, SVG Export Plug-In . SVG Version: 6.00 Build 0)  -->
<svg version="1.1" id="Layer_1" xmlns="http://www.w3.org/2000/svg" xmlns:xlink="http://www.w3.org/1999/xlink" x="0px" y="0px"
	 viewBox="0 0 80 80" enable-background="new 0 0 80 80" xml:space="preserve">
<g>
	<path fill="#E49A61" d="M34.867,64c-0.475-0.342-0.941-0.703-1.4-1.082c-5.171-4.262-8.658-10.236-9.819-16.828
		c-0.506-2.867-0.565-5.785-0.179-8.668l1.48,0.197c-0.366,2.732-0.309,5.494,0.17,8.211c1.1,6.24,4.401,11.9,9.298,15.936
		c0.435,0.357,0.878,0.699,1.327,1.025L34.867,64z"/>
	<path fill="#FFBD66" d="M26.556,29.556l-0.26-0.455l-0.44,0.283c-0.152,0.098-3.727,2.419-4.403,5.177
		c-0.327,1.332-0.275,2.515,0.148,3.423c0.405,0.867,1.149,1.473,2.095,1.703c0.242,0.061,0.497,0.094,0.758,0.094
		c1.387,0,2.947-0.916,3.605-3.598C28.736,33.427,26.645,29.713,26.556,29.556z"/>
	<g>
		<path fill="#FFBD66" d="M31.05,58.791c-0.662-0.568-1.641-0.889-2.829-0.926l0,0c-2.434-0.06-5.207,2.354-5.323,2.457l-0.391,0.35
			l0.369,0.371c0.109,0.111,2.707,2.705,5.162,2.779c0.074,0.002,0.147,0.004,0.219,0.004c1.092,0,2.009-0.258,2.662-0.752
			c0.67-0.508,1.054-1.258,1.08-2.111C32.025,60.109,31.688,59.338,31.05,58.791z"/>
		<path fill="#FFBD66" d="M25.237,56.187c0.782-0.311,1.352-0.932,1.604-1.748c0.253-0.814,0.133-1.648-0.338-2.346
			c-0.487-0.725-1.346-1.293-2.482-1.644c-2.347-0.725-5.646,0.887-5.784,0.955l-0.469,0.232l0.256,0.457
			c0.076,0.135,1.892,3.326,4.238,4.051c0.592,0.184,1.155,0.275,1.674,0.275C24.412,56.42,24.85,56.342,25.237,56.187z"/>
		<path fill="#FFBD66" d="M19.47,46.82c0.936,0.582,1.767,0.814,2.475,0.814c1.125,0,1.941-0.59,2.386-1.309
			c0.725-1.168,0.708-3.066-1.721-4.572l0,0c-2.087-1.293-5.685-0.566-5.838-0.535l-0.513,0.106l0.133,0.506
			C16.431,41.98,17.382,45.527,19.47,46.82z"/>
	</g>
	<g>
		<path fill="#FDDC85" d="M34.845,52.142l-0.252-0.459l-0.445,0.275c-0.132,0.082-3.242,2.033-3.866,4.408
			c-0.728,2.764,0.568,4.152,1.897,4.502c0.226,0.059,0.465,0.092,0.71,0.092c1.203,0,2.554-0.785,3.156-3.08
			C36.669,55.508,34.92,52.279,34.845,52.142z"/>
		<path fill="#FDDC85" d="M31.537,52.486L31.537,52.486c1.233-2.123,0.405-5.699,0.369-5.85l-0.121-0.51l-0.502,0.146
			c-0.149,0.045-3.667,1.098-4.9,3.221c-1.434,2.471-0.556,4.154,0.634,4.846c0.396,0.229,0.871,0.375,1.383,0.375
			C29.419,54.715,30.581,54.133,31.537,52.486z"/>
		<path fill="#FDDC85" d="M29.373,45.715c1.729-1.744,1.83-5.414,1.833-5.568l0.012-0.524l-0.523,0.016
			c-0.155,0.004-3.824,0.135-5.553,1.879c-2.013,2.029-1.587,3.879-0.611,4.848c0.469,0.465,1.139,0.799,1.932,0.799
			C27.322,47.164,28.326,46.769,29.373,45.715z"/>
	</g>
	<path fill="#E49A61" d="M45.132,64l-0.875-1.209c0.449-0.326,0.892-0.668,1.327-1.027c4.896-4.033,8.198-9.693,9.298-15.932
		c0.478-2.719,0.535-5.48,0.169-8.213l1.481-0.197c0.386,2.883,0.326,5.801-0.18,8.668c-1.16,6.592-4.647,12.566-9.819,16.828
		C46.075,63.297,45.607,63.658,45.132,64z"/>
	<path fill="#FDDC85" d="M58.548,34.561c-0.677-2.758-4.251-5.079-4.403-5.177l-0.44-0.283l-0.26,0.455
		c-0.089,0.157-2.181,3.871-1.503,6.628c0.658,2.682,2.22,3.598,3.606,3.598c0.262,0,0.517-0.033,0.758-0.094
		c0.945-0.23,1.69-0.836,2.095-1.703C58.823,37.076,58.875,35.892,58.548,34.561z"/>
	<g>
		<path fill="#FDDC85" d="M51.78,57.865L51.78,57.865c-1.188,0.037-2.167,0.357-2.83,0.926c-0.638,0.547-0.976,1.318-0.949,2.172
			c0.026,0.854,0.41,1.604,1.081,2.111c0.653,0.494,1.57,0.752,2.661,0.752c0.072,0,0.146-0.002,0.22-0.004
			c2.454-0.074,5.052-2.668,5.161-2.779l0.369-0.371l-0.391-0.35C56.986,60.218,54.214,57.804,51.78,57.865z"/>
		<path fill="#FDDC85" d="M55.979,50.449c-1.136,0.352-1.994,0.92-2.481,1.644c-0.47,0.697-0.59,1.531-0.337,2.346
			c0.251,0.816,0.82,1.438,1.603,1.748c0.388,0.154,0.826,0.232,1.302,0.232c0.519,0,1.082-0.092,1.674-0.275
			c2.346-0.725,4.161-3.916,4.237-4.051l0.257-0.457l-0.47-0.232C61.624,51.336,58.325,49.724,55.979,50.449z"/>
		<path fill="#FDDC85" d="M63.229,41.218c-0.153-0.031-3.751-0.758-5.839,0.535l0,0c-2.428,1.506-2.444,3.404-1.72,4.572
			c0.444,0.719,1.26,1.309,2.386,1.309c0.707,0,1.537-0.232,2.474-0.814c2.088-1.293,3.039-4.84,3.078-4.99l0.133-0.506
			L63.229,41.218z"/>
	</g>
	<g>
		<path fill="#FFBD66" d="M45.853,51.959l-0.445-0.275l-0.252,0.459c-0.075,0.137-1.824,3.365-1.199,5.738
			c0.603,2.295,1.953,3.08,3.155,3.08c0.245,0,0.484-0.033,0.71-0.092c1.33-0.35,2.625-1.738,1.898-4.502
			C49.096,53.992,45.984,52.041,45.853,51.959z"/>
		<path fill="#FFBD66" d="M48.718,46.273l-0.503-0.146l-0.12,0.51c-0.036,0.15-0.865,3.727,0.368,5.85l0,0
			c0.956,1.646,2.118,2.229,3.139,2.229c0.511,0,0.986-0.146,1.383-0.375c1.188-0.691,2.067-2.375,0.633-4.846
			C52.384,47.371,48.867,46.318,48.718,46.273z"/>
		<path fill="#FFBD66" d="M54.859,41.517c-1.729-1.744-5.398-1.875-5.554-1.879l-0.523-0.016l0.012,0.524
			c0.004,0.154,0.104,3.824,1.833,5.568c1.047,1.055,2.052,1.449,2.911,1.449c0.793,0,1.463-0.334,1.932-0.799
			C56.445,45.396,56.871,43.547,54.859,41.517z"/>
	</g>
	<rect x="40" y="39.808" fill="#FFBD66" width="5.963" height="1.992"/>
	<rect x="34.037" y="39.808" fill="#FDDC85" width="5.963" height="1.992"/>
	<path fill="#FFBD66" d="M52.867,25.131c0,0-6.304-1.491-9.379,2.546C43.488,22.523,40,16,40,16v21.521h6.335
		c0.26-6.842,6.539-12.39,6.539-12.39H52.867z"/>
	<path fill="#FDDC85" d="M36.512,27.677c-3.074-4.037-9.379-2.546-9.379-2.546h-0.007c0,0,6.28,5.548,6.539,12.39H40V16
		C40,16,36.512,22.523,36.512,27.677z"/>
</g>
</svg>
